<mxfile host="Electron" modified="2024-03-25T10:01:53.935Z" agent="Mozilla/5.0 (Windows NT 10.0; Win64; x64) AppleWebKit/537.36 (KHTML, like Gecko) draw.io/24.0.4 Chrome/120.0.6099.109 Electron/28.1.0 Safari/537.36" etag="6NqR_-Td9gS9YoZSRGFs" version="24.0.4" type="device">
  <diagram name="Page-1" id="yigEy503R6zfOgUrzvSg">
    <mxGraphModel dx="875" dy="518" grid="1" gridSize="10" guides="1" tooltips="1" connect="1" arrows="1" fold="1" page="1" pageScale="1" pageWidth="850" pageHeight="1100" math="0" shadow="0">
      <root>
        <mxCell id="0" />
        <mxCell id="1" parent="0" />
        <mxCell id="pZ8wVZUFAuNEST3vuQPA-1" value="&lt;div&gt;Administrator&lt;/div&gt;" style="shape=umlActor;verticalLabelPosition=bottom;verticalAlign=top;html=1;" vertex="1" parent="1">
          <mxGeometry x="190" y="320" width="30" height="60" as="geometry" />
        </mxCell>
        <mxCell id="pZ8wVZUFAuNEST3vuQPA-4" value="Use-case" style="shape=umlFrame;whiteSpace=wrap;html=1;pointerEvents=0;" vertex="1" parent="1">
          <mxGeometry x="260" y="130" width="600" height="410" as="geometry" />
        </mxCell>
        <mxCell id="pZ8wVZUFAuNEST3vuQPA-5" value="Đăng ký tài khoản" style="ellipse;whiteSpace=wrap;html=1;" vertex="1" parent="1">
          <mxGeometry x="310" y="325" width="140" height="50" as="geometry" />
        </mxCell>
        <mxCell id="pZ8wVZUFAuNEST3vuQPA-6" value="" style="endArrow=none;html=1;rounded=0;entryX=0;entryY=0.5;entryDx=0;entryDy=0;" edge="1" parent="1" source="pZ8wVZUFAuNEST3vuQPA-1" target="pZ8wVZUFAuNEST3vuQPA-5">
          <mxGeometry width="50" height="50" relative="1" as="geometry">
            <mxPoint x="220" y="380" as="sourcePoint" />
            <mxPoint x="270" y="330" as="targetPoint" />
          </mxGeometry>
        </mxCell>
        <mxCell id="pZ8wVZUFAuNEST3vuQPA-7" value="Đăng nhập" style="ellipse;whiteSpace=wrap;html=1;" vertex="1" parent="1">
          <mxGeometry x="520" y="210" width="130" height="42.5" as="geometry" />
        </mxCell>
        <mxCell id="pZ8wVZUFAuNEST3vuQPA-8" value="&amp;lt;&amp;lt;include&amp;gt;&amp;gt;" style="html=1;verticalAlign=bottom;endArrow=open;dashed=1;endSize=8;curved=0;rounded=0;entryX=0;entryY=1;entryDx=0;entryDy=0;exitX=0.788;exitY=0.01;exitDx=0;exitDy=0;exitPerimeter=0;" edge="1" parent="1" source="pZ8wVZUFAuNEST3vuQPA-5" target="pZ8wVZUFAuNEST3vuQPA-7">
          <mxGeometry relative="1" as="geometry">
            <mxPoint x="530" y="178" as="sourcePoint" />
            <mxPoint x="340" y="95" as="targetPoint" />
          </mxGeometry>
        </mxCell>
        <mxCell id="pZ8wVZUFAuNEST3vuQPA-10" value="Đăng ký tài khoản&amp;nbsp;&lt;div&gt;nhân viên&lt;/div&gt;" style="ellipse;whiteSpace=wrap;html=1;" vertex="1" parent="1">
          <mxGeometry x="630" y="305" width="140" height="60" as="geometry" />
        </mxCell>
        <mxCell id="pZ8wVZUFAuNEST3vuQPA-11" value="Đăng ký tài khoản&amp;nbsp;&lt;div&gt;quản lý&lt;/div&gt;" style="ellipse;whiteSpace=wrap;html=1;" vertex="1" parent="1">
          <mxGeometry x="540" y="430" width="140" height="60" as="geometry" />
        </mxCell>
        <mxCell id="pZ8wVZUFAuNEST3vuQPA-14" value="&amp;lt;&amp;lt;extend&amp;gt;&amp;gt;" style="html=1;verticalAlign=bottom;endArrow=open;dashed=1;endSize=8;curved=0;rounded=0;entryX=1;entryY=1;entryDx=0;entryDy=0;exitX=0;exitY=0;exitDx=0;exitDy=0;" edge="1" parent="1" source="pZ8wVZUFAuNEST3vuQPA-11" target="pZ8wVZUFAuNEST3vuQPA-5">
          <mxGeometry relative="1" as="geometry">
            <mxPoint x="470" y="620" as="sourcePoint" />
            <mxPoint x="631" y="454" as="targetPoint" />
          </mxGeometry>
        </mxCell>
        <mxCell id="pZ8wVZUFAuNEST3vuQPA-15" value="&amp;lt;&amp;lt;extend&amp;gt;&amp;gt;" style="html=1;verticalAlign=bottom;endArrow=open;dashed=1;endSize=8;curved=0;rounded=0;entryX=1;entryY=0.5;entryDx=0;entryDy=0;exitX=0;exitY=0.5;exitDx=0;exitDy=0;" edge="1" parent="1" source="pZ8wVZUFAuNEST3vuQPA-10" target="pZ8wVZUFAuNEST3vuQPA-5">
          <mxGeometry relative="1" as="geometry">
            <mxPoint x="480" y="630" as="sourcePoint" />
            <mxPoint x="680" y="445" as="targetPoint" />
          </mxGeometry>
        </mxCell>
      </root>
    </mxGraphModel>
  </diagram>
</mxfile>
